<svg width="184" height="257" viewBox="0 0 184 257" fill="none" xmlns="http://www.w3.org/2000/svg">
<rect width="184" height="257" rx="20" fill="#D9D9D9"/>
<path d="M50.9681 124.31L54.4127 120.67H56.5733C58.0137 120.67 58.7339 120.69 58.7339 120.731C58.7339 120.758 58.6252 120.88 58.4077 121.097C58.367 121.137 57.3546 122.161 55.3707 124.168L52.6598 126.914L56.0026 131.633C58.2311 134.765 59.3454 136.338 59.3454 136.352C59.3454 136.379 58.6116 136.393 57.144 136.393H54.9427C52.8772 133.274 51.3214 130.941 50.2751 129.396C49.4054 130.263 48.7532 130.921 48.3183 131.369V136.393H44.8125V130.799L46.1781 129.355C46.314 129.219 46.9595 128.541 48.1145 127.321C49.2831 126.087 50.2343 125.083 50.9681 124.31ZM44.8125 123.761V120.67H48.3183V123.11L46.6062 124.941C45.4647 126.189 44.8872 126.812 44.8736 126.812C44.8601 126.826 44.8465 126.717 44.8329 126.487C44.8329 126.243 44.8261 125.877 44.8125 125.388C44.8125 124.9 44.8125 124.358 44.8125 123.761Z" fill="#1B1C23"/>
<path d="M64.7337 128.216L67.6484 120.507H71.3377L74.2932 128.399C74.7688 129.674 75.258 130.982 75.7607 132.325C76.2635 133.653 76.644 134.657 76.9022 135.335C77.1739 136.026 77.3098 136.379 77.3098 136.393C77.3234 136.42 77.3166 136.44 77.2894 136.454C77.2758 136.467 77.2011 136.481 77.0652 136.494C76.9429 136.508 76.7595 136.515 76.5149 136.515C76.2839 136.515 75.9442 136.515 75.4958 136.515H73.6206L71.6231 130.657C70.3593 126.982 69.6595 124.968 69.5236 124.616C69.5236 124.602 69.5168 124.582 69.5033 124.555C69.5033 124.514 69.4965 124.494 69.4829 124.494C69.4557 124.494 68.62 126.806 66.9758 131.43L65.1821 136.474C64.7881 136.488 64.1902 136.494 63.3884 136.494C62.5867 136.494 61.9888 136.501 61.5948 136.515L61.6967 136.23C61.7103 136.189 61.8462 135.816 62.1043 135.111C62.3761 134.42 62.7634 133.403 63.2661 132.06C63.7825 130.718 64.2717 129.436 64.7337 128.216Z" fill="#1B1C23"/>
<path d="M89.4351 136.616V120.568H93.0632V136.616H89.4351ZM79.4272 136.616V120.568H83.0553V126.69H86.0312C86.3573 126.69 86.6699 126.69 86.9688 126.69C87.2814 126.69 87.5599 126.697 87.8045 126.711C88.0491 126.711 88.2597 126.711 88.4364 126.711C88.6266 126.711 88.7693 126.717 88.8644 126.731H89.0071L87.4988 128.236L86.0312 129.701H83.0553V136.616H79.4272Z" fill="#1B1C23"/>
<path d="M96.9676 134.806L98.5779 133.443H106.262V136.393H100.718C97.0628 136.393 95.2351 136.365 95.2351 136.311C95.2351 136.298 95.2419 136.284 95.2555 136.271C95.2691 136.257 95.3506 136.182 95.5001 136.047C95.6496 135.925 95.8738 135.735 96.1727 135.477C96.4717 135.233 96.7366 135.009 96.9676 134.806ZM95.1128 126.426V120.67H98.6186V129.212L96.9473 130.636C95.7922 131.626 95.2079 132.128 95.1943 132.141C95.1808 132.155 95.1672 132.08 95.1536 131.918C95.14 131.755 95.1264 131.457 95.1128 131.023C95.1128 130.575 95.1128 129.992 95.1128 129.273C95.1128 128.541 95.1128 127.592 95.1128 126.426Z" fill="#1B1C23"/>
<path d="M118.315 125.327V120.385H121.801V125.388C121.801 128.453 121.78 130.311 121.74 130.962C121.577 132.467 121.128 133.633 120.394 134.46C119.674 135.287 118.601 135.864 117.174 136.189C116.725 136.298 115.998 136.352 114.993 136.352C113.987 136.352 113.457 136.332 113.403 136.291C113.389 136.291 113.383 136.284 113.383 136.271C113.383 136.216 113.987 135.681 115.197 134.664C116.433 133.62 117.14 133.036 117.317 132.914C117.819 132.548 118.132 131.843 118.254 130.799C118.295 130.501 118.315 128.677 118.315 125.327ZM109.755 120.425C110.624 120.425 111.209 120.412 111.507 120.385H111.915L111.936 125.836C111.949 129.497 111.983 131.409 112.037 131.572C112.201 132.006 112.404 132.358 112.649 132.63C112.812 132.819 112.866 132.935 112.812 132.975C112.635 133.138 112.173 133.531 111.426 134.155C110.692 134.765 110.312 135.07 110.285 135.07C110.257 135.07 110.108 134.921 109.836 134.623C109.279 134.013 108.878 133.247 108.634 132.325L108.45 131.653C108.437 130.406 108.43 128.541 108.43 126.06C108.43 123.565 108.423 121.693 108.409 120.446L109.755 120.425Z" fill="#1B1C23"/>
<path d="M127.076 128.216L129.991 120.507H133.68L136.636 128.399C137.111 129.674 137.6 130.982 138.103 132.325C138.606 133.653 138.986 134.657 139.244 135.335C139.516 136.026 139.652 136.379 139.652 136.393C139.666 136.42 139.659 136.44 139.632 136.454C139.618 136.467 139.543 136.481 139.408 136.494C139.285 136.508 139.102 136.515 138.857 136.515C138.626 136.515 138.287 136.515 137.838 136.515H135.963L133.965 130.657C132.702 126.982 132.002 124.968 131.866 124.616C131.866 124.602 131.859 124.582 131.846 124.555C131.846 124.514 131.839 124.494 131.825 124.494C131.798 124.494 130.962 126.806 129.318 131.43L127.524 136.474C127.13 136.488 126.533 136.494 125.731 136.494C124.929 136.494 124.331 136.501 123.937 136.515L124.039 136.23C124.053 136.189 124.188 135.816 124.447 135.111C124.718 134.42 125.106 133.403 125.608 132.06C126.125 130.718 126.614 129.436 127.076 128.216Z" fill="#1B1C23"/>
</svg>
